<svg width="150" height="37" viewBox="0 0 333 82" fill="none" xmlns="http://www.w3.org/2000/svg">
<g id="LOGO">
<g id="Group">
<g id="Group_2">
<path id="Vector" d="M84.9498 5.4332C84.924 4.93457 84.695 4.46919 84.3182 4.14046C83.9415 3.81543 83.4539 3.63445 82.9516 3.69354L80.0965 3.92993C80.4511 4.71296 80.7318 5.53662 80.9239 6.39352C80.9312 6.42676 80.946 6.45262 80.9534 6.48586C81.1455 7.37231 81.26 8.28462 81.26 9.22278C81.26 10.1351 81.1602 11.0252 80.9756 11.8858C80.9497 12.0114 80.8906 12.1259 80.8611 12.2515C80.6838 12.9902 80.4622 13.7104 80.163 14.3937C80.1445 14.4381 80.115 14.475 80.0965 14.5156C79.9672 14.8037 79.7752 15.0549 79.6237 15.3319C79.3467 15.8453 79.066 16.355 78.7299 16.8204C78.2682 17.4483 77.7585 18.0467 77.1934 18.5822L77.1897 18.5859L67.8967 71.2263L66.8293 77.2726L3.98736 66.8014L14.4253 7.64563L56.6573 14.6818C56.3396 14.0059 56.1143 13.2857 55.9112 12.558C55.7856 12.0742 55.6933 11.5793 55.6194 11.0732C55.5234 10.4601 55.4015 9.85437 55.4015 9.2117C55.4015 8.07409 55.5972 6.98818 55.8742 5.93552L36.3982 7.55699L13.2286 3.69724C12.2277 3.51256 11.2821 4.19956 11.1085 5.19682L0.02788 67.987C-0.0570715 68.4709 0.0537348 68.9732 0.338138 69.3721C0.62254 69.771 1.05468 70.048 1.54223 70.1293L18.1115 72.8921L18.466 79.4887C18.4956 79.9985 18.7283 80.4712 19.1161 80.7963C19.4522 81.0807 19.877 81.2358 20.3091 81.2358C20.3793 81.2358 20.4458 81.2321 20.5123 81.2247L49.0707 78.052L68.0223 81.2099C68.1257 81.2284 68.2255 81.2358 68.3289 81.2358C69.2079 81.2358 69.9873 80.6042 70.1461 79.7104L70.8663 75.6327L86.9997 73.8413C87.9748 73.7342 88.6951 72.881 88.6397 71.9022L84.9498 5.4332ZM59.6749 12.3401C59.7155 12.4546 59.7377 12.5765 59.782 12.6873C59.8965 12.9717 60.048 13.2303 60.192 13.4962C60.2363 13.5775 60.277 13.6587 60.325 13.74C60.4321 13.932 60.517 14.1352 60.6389 14.3162L52.2546 22.7005C51.5343 23.4208 51.5343 24.5916 52.2546 25.3118C52.6165 25.6738 53.0893 25.8511 53.5621 25.8511C54.0349 25.8511 54.5076 25.6701 54.8696 25.3118L63.2539 16.9275C64.7129 17.8952 66.4599 18.4677 68.3363 18.4677C71.642 18.4677 74.5266 16.7059 76.1592 14.0872C76.1961 14.0318 76.222 13.969 76.2552 13.9099C76.5987 13.3337 76.8683 12.7169 77.0789 12.0668C77.138 11.8932 77.1934 11.7196 77.2414 11.5423C77.4335 10.7999 77.5701 10.0354 77.5701 9.23386C77.5701 8.39912 77.4224 7.60501 77.2118 6.83305C77.1675 6.67423 77.1195 6.5191 77.0678 6.36398C75.8526 2.68151 72.4213 0 68.3363 0C64.5245 0 61.2447 2.32324 59.8374 5.62896C59.6121 6.15714 59.4422 6.71117 59.3203 7.27997C59.3092 7.30583 59.2945 7.33168 59.2908 7.36492C59.1652 7.96697 59.0987 8.59118 59.0987 9.23016C59.0987 9.84699 59.1615 10.449 59.2797 11.0326C59.3683 11.4832 59.5198 11.9117 59.6749 12.3401Z" fill="#FEF4E8"/>
</g>
</g>
<g id="Group_3">
<path id="Vector_2" d="M110.803 66.1283V14.4291C110.803 11.2877 113.227 8.86426 116.368 8.86426H134.23C153.976 8.86426 167.619 22.4174 167.619 40.0992V40.2787C167.619 57.9606 153.976 71.6932 134.23 71.6932H116.368C113.227 71.6932 110.803 69.2698 110.803 66.1283ZM121.843 61.6406H134.23C147.424 61.6406 156.04 52.7548 156.04 40.4582V40.2787C156.04 27.9822 147.424 18.9169 134.23 18.9169H121.843V61.6406ZM180.992 66.6669V14.4291C180.992 11.2877 183.416 8.86426 186.557 8.86426H205.765C220.485 8.86426 229.64 17.2115 229.64 29.8671V30.0466C229.64 44.1382 218.331 51.4982 204.508 51.4982H192.032V66.6669C192.032 69.7186 189.609 72.142 186.557 72.142C183.416 72.142 180.992 69.7186 180.992 66.6669ZM192.032 41.5353H204.867C213.215 41.5353 218.42 36.868 218.42 30.3159V30.1363C218.42 22.7764 213.125 18.9169 204.867 18.9169H192.032V41.5353ZM240.949 66.6669V14.4291C240.949 11.2877 243.372 8.86426 246.514 8.86426H283.134C285.917 8.86426 288.16 11.1081 288.16 13.8906C288.16 16.673 285.917 18.9169 283.134 18.9169H251.989V36.0602H279.095C281.878 36.0602 284.121 38.3041 284.121 41.0865C284.121 43.869 281.878 46.1128 279.095 46.1128H251.989V66.6669C251.989 69.7186 249.566 72.142 246.514 72.142C243.372 72.142 240.949 69.7186 240.949 66.6669ZM314.818 72.5908C308.804 72.5908 302.252 70.7059 296.777 66.9362C295.61 66.3079 294.713 64.9615 294.713 63.1664C294.713 60.743 296.597 58.7684 299.111 58.7684C300.008 58.7684 300.816 59.0377 301.444 59.3967C306.022 62.4484 310.779 63.9742 315.087 63.9742C319.754 63.9742 322.447 61.9996 322.447 58.8581V58.6786C322.447 54.9987 317.421 53.7421 311.856 52.0367C304.855 50.0621 297.046 47.1899 297.046 38.1246V37.9451C297.046 28.9695 304.496 23.4944 313.92 23.4944C318.947 23.4944 324.242 24.9305 328.82 27.3539C330.346 28.1617 331.423 29.5978 331.423 31.4827C331.423 33.9958 329.448 35.8807 326.935 35.8807C326.037 35.8807 325.499 35.7012 324.781 35.3422C320.921 33.3675 316.972 32.111 313.651 32.111C309.433 32.111 307.009 34.0856 307.009 36.7783V36.9578C307.009 40.4582 312.125 41.8943 317.69 43.6894C324.601 45.8436 332.41 48.985 332.41 57.5118V57.6913C332.41 67.6542 324.691 72.5908 314.818 72.5908Z" fill="white"/>
</g>
</g>
</svg>
